<?xml version="1.0" encoding="utf-8"?>
<!-- Generator: Adobe Illustrator 24.3.0, SVG Export Plug-In . SVG Version: 6.00 Build 0)  -->
<svg version="1.1" id="Layer_1" xmlns="http://www.w3.org/2000/svg" xmlns:xlink="http://www.w3.org/1999/xlink" x="0px" y="0px"
	 viewBox="0 0 1029 468" style="enable-background:new 0 0 1029 468;" xml:space="preserve">
<style type="text/css">
	.st0{fill:#896F25;}
</style>
<g>
	<path class="st0" d="M449.7,190.8c0,0,0.1-0.1,0.1-0.2c0-0.1,0.2-0.3,0.3-0.7C449.9,190.3,449.7,190.7,449.7,190.8z M862,118.7
		c-8.8-3.2-20.3-4.8-34.6-4.8c-24.3,0-50.3,5.3-78,16.1c-35.6-8.5-58.1-13.6-67.4-15.3c-9.3-1.8-19.5-2.6-30.6-2.6
		c-17.6,0-32.9,1.7-46.1,5c-10.3-15.6-26.9-23.3-49.9-23.3c-9,0-17.8,1.3-26.5,4c1.2-0.3,2.4-0.5,3.6-0.7c0,0,3.8-0.6,4,0
		c0.5,1.6-24.1,5.8-44,22c-9,7.3-14,14.6-19,22c-0.2,0.3-0.4,0.6-0.6,0.8c23.2-31.1,52.7-45.2,83.8-45.2c19.5,0,34,7,43.5,21.1
		c-30.1,6.3-57.4,21.6-81.9,45.7c-24.5,24.1-36.7,47.9-36.7,71.4c0,10.3,3.2,18.7,9.5,25.1c6.3,6.4,14.6,9.6,24.8,9.6
		c24.1,0,46.8-12,68.1-36c21.2-24,31.8-49.6,31.8-76.8c0-13-2.7-24.6-8-34.9c3.4-0.2,6.9-0.4,10.6-0.4c18.4,0,44.3,4.4,77.7,13.1
		c10.3,2.7,20.3,5.2,29.9,7.3c-35.7,15.9-69.9,48.5-102.5,97.8H618c-7.8,0-15.3,2.2-22.3,6.6c-7,4.4-10.5,9.1-10.5,14.1
		c0,1,0.5,1.5,1.5,1.5c0.7,0,1.4-0.9,2-2.6c5.4-10.7,15-16.1,28.9-16.1h3.5c-3.9,6-6.8,10.4-8.8,13.3
		c-23.2,35.6-44.4,60.7-63.9,75.2c-19.4,14.5-41.3,21.8-65.5,21.8c-15.4,0-28.6-3.7-39.5-11.1c-10.9-7.4-16.3-16.3-16.3-26.8
		c0-6.6,1.2-9.9,3.5-9.9c1.1,0,1.5,1.5,1.1,4.5c0,5.8,3,8.8,9.2,8.8c3.6,0,6.7-1.4,9.2-4.2c2.5-2.8,3.8-6.1,3.8-10
		c0-8.3-4.1-12.5-12.3-12.5c-5.1,0-9.5,2.2-13.2,6.6c-3.7,4.4-5.5,9.8-5.5,16c0,12.5,6,22.6,18.1,30.5c12.1,7.9,27.6,11.9,46.5,11.9
		c32.1,0,63.2-10.6,93.4-31.8c11.3-8,20.3-16.1,27-24.3c6.7-8.2,15.3-21.9,26-41.1c3.4-6.1,5.9-10.7,7.7-13.8l3.5,0.7
		c6.8,1.1,12.1,1.9,15.7,2.2c-8.8,20.4-17.6,31.9-26.2,34.5c-1.2,0.4-1.9,0.9-1.9,1.5c0,0.8,0.9,1.1,2.6,1.1
		c5.1,0,10.6-2.5,16.4-7.6c5.9-5,10.3-11.2,13.5-18.4c2.7-6.1,4.3-9.4,4.7-9.9h3.7c9.6,0,17.3-1.7,23.2-5.1
		c5.9-3.4,8.9-7.9,8.9-13.4c0-6.8-4.4-10.3-13.3-10.3c-13,0-22.9,8-29.9,24.1c-5.1-0.7-11.5-1.7-19.2-3c15.6-28.6,30-50.6,43.2-65.8
		s27.8-26.6,43.6-34.1c32.5,6.8,59.9,10.3,82.4,10.3c17.2,0,31.9-2.1,44.1-6.4c12.2-4.3,18.3-9.5,18.3-15.6
		C875.1,126,870.8,121.8,862,118.7z M608.9,148.1c0,26.6-10.5,52.9-31.4,78.9c-20.9,26-42.2,38.9-63.9,38.9c-8.2,0-15.1-3-20.6-9.2
		c-5.5-6.1-8.3-13.5-8.3-22.2c0-23.4,12.5-47,37.5-70.7c25-23.7,51.8-37.4,80.5-41C606.8,131.3,608.9,139.7,608.9,148.1z
		 M672.7,243.7c5.7-12.8,12.6-19.2,20.7-19.2c6.1,0,9.2,2.7,9.2,8c0,4.2-2.5,7.7-7.6,10.4c-5,2.7-11.4,4.1-19.1,4.1h-4.7
		L672.7,243.7z M861.5,140.6c-6.7,2.6-14.6,3.9-23.5,3.9c-17.6,0-36.8-2.4-57.7-7.3l-25-5.6c22.7-9.5,47.5-14.2,74.7-14.2
		c11.5,0,21.2,1.4,29.4,4.2c8.2,2.8,12.2,6.1,12.2,10C871.6,135,868.2,138,861.5,140.6z"/>
	<path class="st0" d="M752,290.7c-0.1,0.4-0.7,1.4-1.9,3l-8,11c-23.4,32.5-41.3,48.8-53.7,48.8c-5.9,0-10.7-2.1-14.7-6.3
		c-3.9-4.2-5.9-9.4-5.9-15.6c0-7.2,4.3-18.2,12.9-32.9l29.1-49.5c3.9,0.9,6.9,1.3,9.2,1.3c3.4,0,8.1-0.4,14.2-1.3l-42.4,69.7
		c-6.1,10.1-9.1,17.9-9.1,23.3c0,5.6,2.9,8.4,8.8,8.4c11.1,0,30.6-19.8,58.5-59.3c0.6-1.2,1.2-1.9,1.9-1.9
		C751.6,289.5,752,289.9,752,290.7z M749.3,213.4c0,4.4-1.8,8.4-5.5,12.2c-3.7,3.8-7.7,5.7-12,5.7c-5.6,0-8.4-2.8-8.4-8.4
		c0-4.1,1.9-8.1,5.8-11.9c3.9-3.8,7.9-5.7,12.1-5.7C746.6,205.4,749.3,208.1,749.3,213.4z"/>
	<path class="st0" d="M921.8,160.2c-46.7,74.2-76.1,121.6-88.3,142.3c-12.3,21-18.5,34.3-18.5,39.8c0,5.6,2.6,8.4,7.7,8.4
		c11.3,0,30.6-19.8,57.8-59.3c0.7-1.2,1.4-1.9,2.1-1.9c0.7,0,1.1,0.4,1.1,1.1c-0.1,0.4-0.7,1.4-1.9,3l-8,11
		c-23.6,32.5-40.9,48.8-52.2,48.8c-5.7,0-10.4-2.1-14-6.4c-3.6-4.3-5.4-9.8-5.4-16.5s2.2-14.5,6.7-23.3
		c-21.8,30.9-38,46.3-48.6,46.3c-6.6,0-12.1-2.8-16.6-8.5c-4.5-5.7-6.7-12.8-6.7-21.4c0-20.5,12.8-39.2,38.3-55.8
		c20.3-13.3,36.2-20,47.8-20c7.7,0,11.6,3.7,11.6,11.2c0,3.5-1.1,7.4-3.2,11.8l66.7-111.7c4.1,1.2,8.2,1.9,12.1,1.9
		C911.2,161,915.1,160.7,921.8,160.2z M831.8,260.5c0-6.6-3.1-9.9-9.2-9.9c-11.2,0-26,11.2-44.4,33.5
		c-18.4,22.3-27.5,40.4-27.5,54.1c0,8.3,3.4,12.5,10.3,12.5c10,0,27.1-17.3,51.4-51.9C825.3,280.1,831.8,267.3,831.8,260.5z"/>
	<path class="st0" d="M947.9,290.7c-0.1,0.4-0.7,1.4-1.9,3l-8,11c-23.4,32.5-41.3,48.8-53.7,48.8c-5.9,0-10.7-2.1-14.7-6.3
		c-3.9-4.2-5.9-9.4-5.9-15.6c0-7.2,4.3-18.2,12.9-32.9l29.1-49.5c3.9,0.9,6.9,1.3,9.2,1.3c3.4,0,8.1-0.4,14.2-1.3l-42.4,69.7
		c-6.1,10.1-9.1,17.9-9.1,23.3c0,5.6,2.9,8.4,8.8,8.4c11.1,0,30.6-19.8,58.5-59.3c0.6-1.2,1.2-1.9,1.9-1.9
		C947.5,289.5,947.9,289.9,947.9,290.7z M945.2,213.4c0,4.4-1.8,8.4-5.5,12.2c-3.7,3.8-7.7,5.7-12,5.7c-5.6,0-8.4-2.8-8.4-8.4
		c0-4.1,1.9-8.1,5.8-11.9c3.9-3.8,7.9-5.7,12.1-5.7C942.5,205.4,945.2,208.1,945.2,213.4z"/>
	<path class="st0" d="M1017.1,247.8l-1.5,2.8h-24.5l-41.6,71.1c-5.1,8.6-7.7,15.4-7.7,20.5c0,5.6,2.9,8.4,8.8,8.4
		c11.3,0,30.5-19.8,57.4-59.3c0.9-1.2,1.6-1.9,2.2-1.9c0.7,0,1.1,0.4,1.1,1.1c-0.1,0.4-0.7,1.4-1.9,3l-8,11
		c-23.4,32.5-41.1,48.8-52.9,48.8c-5.9,0-10.7-2.1-14.7-6.3c-3.9-4.2-5.9-9.5-5.9-15.9c0-7.5,3.3-16.8,9.9-28l31.4-52.7h-19l1.9-2.8
		h18.7l21.8-36.2c3.7,1,7.3,1.5,10.6,1.5c3.5,0,7.1-0.5,10.8-1.5l-21.5,36.2H1017.1z"/>
</g>
<g>
	<path class="st0" d="M571.3,407.1h-15.9v14h14.7v2.9h-14.7v16.7h-3.5v-36.4h19.4V407.1z"/>
	<path class="st0" d="M587.7,440.6h-3.5v-36.4h3.5V440.6z"/>
	<path class="st0" d="M634.4,440.6h-3.3l-22.9-29.2c-0.3-0.3-0.5-0.6-0.7-0.9s-0.5-0.6-0.8-1h-0.1c0,0.3,0,0.6,0.1,1s0,0.9,0,1.5
		v28.6h-3.5v-36.4h3.5l22.6,28.9c0.3,0.4,0.5,0.7,0.8,1c0.2,0.3,0.5,0.7,0.8,1.1h0.1c0-0.6-0.1-1.2-0.1-1.8c0-0.6,0-1.3,0-2v-27.3
		h3.4V440.6z"/>
	<path class="st0" d="M670.3,440.6H650v-36.4h19.4v2.9h-15.9v13.6h14.7v2.9h-14.7v14.1h16.8V440.6z"/>
	<path class="st0" d="M703.3,440.6v-36.4h10.4c6.8,0,11.9,1.5,15.5,4.4c3.5,3,5.3,7.4,5.3,13.2c0,5.8-1.9,10.4-5.7,13.7s-9,5-15.6,5
		H703.3z M706.7,407.1v30.7h6.2c5.7,0,10.1-1.3,13.3-4c3.1-2.7,4.7-6.6,4.7-11.8c0-5.2-1.5-8.9-4.4-11.3c-2.9-2.4-7.3-3.6-13.1-3.6
		H706.7z"/>
	<path class="st0" d="M751.2,440.6h-3.5v-36.4h3.5V440.6z"/>
	<path class="st0" d="M797.9,440.6h-3.3l-22.9-29.2c-0.3-0.3-0.5-0.6-0.7-0.9s-0.5-0.6-0.8-1h-0.1c0,0.3,0,0.6,0.1,1s0,0.9,0,1.5
		v28.6h-3.5v-36.4h3.5l22.6,28.9c0.3,0.4,0.5,0.7,0.8,1c0.2,0.3,0.5,0.7,0.8,1.1h0.1c0-0.6-0.1-1.2-0.1-1.8c0-0.6,0-1.3,0-2v-27.3
		h3.4V440.6z"/>
	<path class="st0" d="M844.6,440.6h-3.3l-22.9-29.2c-0.3-0.3-0.5-0.6-0.7-0.9s-0.5-0.6-0.8-1h-0.1c0,0.3,0,0.6,0.1,1s0,0.9,0,1.5
		v28.6h-3.5v-36.4h3.5l22.6,28.9c0.3,0.4,0.5,0.7,0.8,1c0.2,0.3,0.5,0.7,0.8,1.1h0.1c0-0.6-0.1-1.2-0.1-1.8c0-0.6,0-1.3,0-2v-27.3
		h3.4V440.6z"/>
	<path class="st0" d="M863.6,440.6h-3.5v-36.4h3.5V440.6z"/>
	<path class="st0" d="M910.4,440.6h-3.3l-22.9-29.2c-0.3-0.3-0.5-0.6-0.7-0.9s-0.5-0.6-0.8-1h-0.1c0,0.3,0,0.6,0.1,1s0,0.9,0,1.5
		v28.6h-3.5v-36.4h3.5l22.6,28.9c0.3,0.4,0.5,0.7,0.8,1c0.2,0.3,0.5,0.7,0.8,1.1h0.1c0-0.6-0.1-1.2-0.1-1.8c0-0.6,0-1.3,0-2v-27.3
		h3.4V440.6z"/>
	<path class="st0" d="M956.6,437.3c-2,1.3-4.2,2.2-6.6,2.9c-2.3,0.7-4.7,1-7.2,1c-5.8,0-10.5-1.7-14-5.1c-3.5-3.4-5.2-8-5.2-13.6
		c0-5.6,1.8-10.1,5.3-13.6c3.5-3.5,8.2-5.2,13.9-5.2c3,0,5.7,0.5,8.1,1.6c2.4,1.1,4.3,2.6,5.7,4.7l-2.9,1.5
		c-1.2-1.6-2.8-2.8-4.6-3.7c-1.9-0.8-4-1.3-6.3-1.3c-4.7,0-8.4,1.5-11.3,4.4s-4.3,6.7-4.3,11.4c0,4.9,1.4,8.7,4.3,11.6
		c2.9,2.9,6.6,4.3,11.4,4.3c1.8,0,3.6-0.2,5.4-0.7c1.8-0.5,3.4-1.1,4.9-2v-10.5h-9.9v-2.9h13.3V437.3z"/>
</g>
<path class="st0" d="M380.7,239.2c0.5,0,0.9-0.6,1.3-1.5C379,238.8,378.1,239.3,380.7,239.2z M449.7,190.8c0,0,0.1-0.1,0.1-0.2
	c0-0.1,0.2-0.3,0.3-0.7C449.9,190.3,449.7,190.7,449.7,190.8z M470.8,144.6c-0.1,0.1-0.4,0.7-0.8,1.7c0.9-1.4,1.8-2.8,2.8-4.3
	C472.1,142.8,471.5,143.7,470.8,144.6z"/>
<path class="st0" d="M532.3,97.1c-1.2,0.2-2.4,0.4-3.6,0.7c-31.3,6.7-50.4,30.3-50.4,30.3s-14.5,18-24,48c-1.2,4-2.1,7.7-3.5,11.5
	c-0.5,1.9-2,5-3,7c-1.9,3.8-6,8.6-11,14C422.6,224,391.5,234,382,237.7c-0.4,1-0.8,1.5-1.3,1.5c-2.6,0.2-1.7-0.4,1.3-1.5
	c3-7.2,3.8-37.6,3.8-41.2c-0.2-14.7-2.3-29.3-6.2-43.5C364.2,97.7,318.7,51.3,266,30.3c-6.6-2.6-13.4-4.9-20.3-6.8
	c-31.9-8.6-72.7-11.9-104.3-1c-8.2,2.8-16,4.8-23.4,9.6c-8,5.2-42.1,30.7-49.5,37.6C56.2,81.2,24.7,121.5,19,155.5
	c-1,5.8-2.1,11.6-2.9,17.4c-3.8,28.2-5.2,57,3.2,84.6c7.3,24.1,22.9,47.8,38.6,67.3c13.9,17.2,32.2,27.9,53.6,32.8
	c11.5,2.7,24.1,4.4,35.9,3c13.6-1.6,41.6-13.6,61.5-42.3c5.1,3.5,10.2,6.9,15.5,10.2c-0.2,0.4-0.3,0.9-0.5,1.3
	c-3.5,7.9-6.1,19.4-1.7,28.4c6.4,13,30.8,9.4,34.5,6.2c4.6-4.2,1.1-13.5-1.6-17.5c-5.2-7.7-14.7-11.6-22.4-16.2
	c-1.1-0.6-2.2-1.4-3.3-2c2.9-6.6,4.6-12.8,6.2-19.9c3.6-15.2,12.9-45.6,12.7-45.8c5.9-19.6,28.1-26.9,38.6-43.6
	c9.3-14.8,11.8-33.1,10.8-50.2c-1.1-18.4-6-36.7-14.2-53.1c-6.9-13.8-16.7-30-32.3-35c-10.5-3.3-21.1-1-28.8,6.9
	c-11.4,11.7-19.7,31-25.9,45.8c-6.9,16.6-11.9,36.7-12.2,54.6c-0.3,18.1,8.2,30,21.2,41.7c8.2,7.4,17.9,15.4,20.9,26.6
	c3,11.4-1.8,24.3-6.3,34.5c-3.5,8-8,15.4-13,22.5c-3.4-2.4-6.9-4.9-10.3-7.3c0.1-0.1,0.1-0.3-0.2-0.5c-8.8-6.2-14-20-18-29.5
	c-0.8-2-1.5-4.1-2.2-6.2c7.3-2.7,14.2-6.5,19.2-11.7c0.8-0.9-3.4-2.1-4.4-1.1c-4.3,4.5-10,7.3-15.9,9.5c-0.6-1.7-1.2-3.4-2-5
	c-3-6.2-7-10.4-1.8-17.3c3.2-4.2,7.9-7.1,10.5-11.6c4.1-7.2,1.6-16.3-1.3-24.1c-6.9-18.9-15.5-37.2-24-55.4
	c-9.8-21-19.8-42.2-34.1-60.5c-2.1-2.6-4.7-5.4-8-5.4c3.3,36.3,16.9,71.1,35.5,102.4c3.8,6.4,7.9,12.8,10.4,19.8
	c0.5,1.3,0.9,2.7,0.4,3.9c-0.8,2.1-3.6,2.7-5.7,1.8c-2-0.9-3.4-2.9-4.6-4.7c-19.9-30-36.1-62.4-48.2-96.3
	c-2.1-5.8-5.6-12.8-11.8-12.5c-3.4,0.2-6.3,2.9-7.6,6c-1.3,3.2-1.2,6.8-0.6,10.1c1.6,9.9,6.5,18.9,11.3,27.6
	c8.6,15.5,17.1,31,25.7,46.5c6.9,12.5,13.9,25.3,16.4,39.3c0.6,3.1-0.5,7.7-3.6,7.2c-1.2-0.2-2-1.1-2.8-2
	c-10.3-12-17.1-26.5-24.1-40.8c-11.6-23.7-23.9-47.1-38-69.4c-1.4-2.3-3-4.6-5.2-6.1c-2.2-1.5-5.4-1.8-7.5-0.2
	c-2.7,2.2-2.3,6.5-1.5,9.9c4.2,17.2,12,33.3,19.8,49.2l24.5,50.4c7.9,16.2,17,33.6,33.5,40.9c12.8,5.7,27.7,4,41.4,0.7
	c-0.6,0.1,10.7,23.5,12,25.5c5.6,8.3,13,13,21,18.6c-15.7,26.5-42.9,37.8-52.7,40.7c-13.8,4-29.9,1.8-43.6-1.6
	c-28.2-7-45.1-25.2-60.5-48.6c-12-18.2-23.7-37.3-27.6-59.1c-4-22-5-47.9,0-69.7c0-0.2,0-0.4-0.1-0.7c-0.1-0.4,0.3-1.4,0.3-1.8
	c0.1-0.7,0.2-1.4,0.4-2.1c0.2-1.4,0.5-2.7,0.7-4.1c0.5-2.7,1-5.5,1.5-8.2c1-5.4,2.1-10.8,3.4-16.1c5.7-22.2,20.1-43.4,35-60.3
	c9.3-10.6,18.4-17,29.5-25.7c3.8-3,7.9-5.8,11.5-8.9c6.4-5.6,11.3-10.9,18.9-15c7.3-4,15.1-7.2,23.1-9.6c16.2-4.9,33.2-6.7,50-6.3
	c55,1.2,109.7,26,144.9,68.2c35.3,42.3,50.8,99.4,36.7,152.7c-22.3,4.1-45.5,10.5-67.8,14.6c-18,3.3-39,9.1-45.2,26.3
	c-3.5,9.6-0.9,20.6,4.3,29.3c9.6,15.8,28.5,25.5,46.9,24.1c20.4-1.6,38.3-15.8,48.9-33.4c10.5-17.6,14.8-38.2,17.3-58.5
	c44-11.2,60.9-29.3,68.1-43.9c3.9-7.8,5.6-15.8,8.6-25c4.5-10.1,10-22.3,12.1-26.8c0,0,0,0,0,0c0.5-1,0.7-1.5,0.8-1.7
	c0.6-0.9,1.3-1.8,1.9-2.7c0.2-0.3,0.4-0.6,0.6-0.8c5-7.4,10-14.7,19-22c19.9-16.2,44.5-20.4,44-22C536.1,96.5,532.3,97.1,532.3,97.1
	z M250.4,346.9c2.2,3.1,4.4,7.5,3.6,11.6c-0.9,6.4-29.4,7.4-30.3-9.8c0-6.1,2.2-12.1,4.6-17.7c0.3,0.2,0.5,0.3,0.8,0.5
	C236.7,335.9,245.3,339.5,250.4,346.9z M231.9,263.8c-0.1-13.9-10.2-23.8-19.8-32.4c-14.3-12.8-24-24.7-23.1-44.9
	c0.8-17.7,5.8-37.9,12.8-54.1c6-13.7,13.3-29.9,22.9-41.5c0.7-0.9,4.5-5.2,6.5-6.1c1.5-0.7,6.1-1.1,11.7-0.6
	c5.6,0.5,12.1,1.9,13.4,2.6c4.2,2.5,7.6,6.7,10.6,10.5c5.5,7,10,14.8,13.7,22.8c7.4,16,11.7,33.5,12.5,51.1c0.8,18.7-2.6,39-15,53.8
	c-11.7,14-30.3,20.8-35,39.8c0,0.2-9.8,42.1-17.8,61.5c-5-3.2-9.9-6.5-14.8-9.9C222.6,300.3,232.1,282.4,231.9,263.8z M166.1,270.1
	c-11.3,3.6-31.8,3.8-41.2-5.6c-3.1-3.2-17.9-26.5-19.6-29.5c-0.3-0.5-0.6-1.1-0.8-1.6c-4.2-7.6-17.2-35.2-20.1-40.8
	c-4-7.9-8.2-15.8-12.3-23.8c-3.9-8.5-7.9-16.3-11.1-25.1c-1.2-3.2-5.5-12.7-4.1-17c2.2-6.5,5.8,0.7,7.8,3.5
	c11.1,15.5,34.7,66.4,38.6,74.1c3.6,7.2,21.9,41.9,30.7,41.5c19.7-0.8-13.4-60.5-13.9-60.7c-3.5-8-8.1-15-13-22.3
	c-6.6-9.8-16.9-31-17-31.2c-1.2-5.1-5-15.6-2.7-20.8c5.3-11.8,6.8-3.3,8.2,0.3c1.6,4.1,3.4,8.2,5.3,12.2c3.2,6.9,21,48,23.8,53.2
	c2.9,5.4,6.1,10.7,9.2,15.9c0.4,0.6,18.8,28,22.4,30.1c1.3,0.8,2.8,1.2,4.4,1c9.9-0.8,0.1-20.8-2-25c-17.5-33.3-34.4-66.5-39-104.1
	c18.1,22.7,29.3,52.1,41.5,78c6.6,14.1,13.3,28.7,17.2,43.8c2.4,9.2,0.4,15-6,21.7c-3.6,3.8-6.8,6.5-8.9,11.3c0,0.1,0,0.1,0,0.2
	c-0.4,0.2-0.7,0.5-0.6,0.8c1.2,4.4,4,7.6,5.9,11.6c1,2,1.8,4.2,2.5,6.3C169.5,269,167.8,269.6,166.1,270.1z M338.7,322.6
	c-12.2,7.9-25,11-39.5,7.2c-10.2-2.7-17.7-6.7-23.5-15.7c-9.4-14.6-13.6-29.7-0.2-43.6c13.4-13.9,34.9-15.2,52.9-18.3
	c14.4-2.5,29-4.6,43.3-7.8c1.6-0.3,3.1-0.7,4.7-1.1C373.8,272.8,364.1,306.3,338.7,322.6z M449.8,190.6c0,0.1-0.1,0.1-0.1,0.2
	c0,0,0.2-0.4,0.4-0.9C450,190.3,449.9,190.5,449.8,190.6z"/>
<g>
</g>
<g>
</g>
<g>
</g>
<g>
</g>
<g>
</g>
<g>
</g>
<g>
</g>
<g>
</g>
<g>
</g>
<g>
</g>
<g>
</g>
<g>
</g>
<g>
</g>
<g>
</g>
<g>
</g>
</svg>
